Coordinates
version=1
nRows=26
nColumns=24
inDegrees=yes

Units are S.I. units (second, meters, Newtons, ...)
Angles are in degrees.

endheader
time	pelvis_tilt	pelvis_list	pelvis_rotation	pelvis_tx	pelvis_ty	pelvis_tz	hip_flexion_r	hip_adduction_r	hip_rotation_r	knee_angle_r	ankle_angle_r	subtalar_angle_r	mtp_angle_r	hip_flexion_l	hip_adduction_l	hip_rotation_l	knee_angle_l	ankle_angle_l	subtalar_angle_l	mtp_angle_l	lumbar_extension	lumbar_bending	lumbar_rotation
      3.86000000	     -9.43818065	      6.17023827	      3.12840393	     -1.35940627	     -0.00470274	     -0.34177873	     27.17488057	    -12.45437690	     -9.63149912	    -66.12228437	    -16.72616510	      5.30477619	     38.89946227	     11.43822423	     11.64762360	     18.42920421	    -10.98685341	      0.09684821	     -8.49365364	      1.11260113	      7.77487647	     -8.69381856	     -0.19295234
      3.86500000	     -9.32042453	      5.96324024	      3.34333597	     -1.35471147	     -0.00412320	     -0.34212141	     27.67391189	    -12.31009418	     -9.83083183	    -65.79383458	    -16.07959096	      5.35327527	     39.20915755	     10.79641428	     11.40346694	     18.70221510	    -10.63924702	      0.25710467	     -8.35371136	      1.06946844	      7.55218611	     -8.49804857	     -0.66143547
      3.87000000	     -9.18002924	      5.76924874	      3.53448462	     -1.35001696	     -0.00358555	     -0.34245425	     28.13753228	    -12.17274372	    -10.02283702	    -65.40409561	    -15.44171076	      5.35607557	     39.47254976	     10.12469444	     11.15706734	     18.91561331	    -10.26734985	      0.43912264	     -8.19325687	      1.09741539	      7.31348895	     -8.30543271	     -1.06936207
      3.87500000	     -9.10058980	      5.55818643	      3.68350113	     -1.34530814	     -0.00313796	     -0.34270402	     28.66736098	    -11.98153376	    -10.15599874	    -64.95347493	    -14.85989817	      5.34426590	     39.63093094	      9.51121940	     10.86991057	     19.09072062	     -9.86110480	      0.62101749	     -8.01452367	      1.20020359	      7.16098287	     -8.09159863	     -1.40403949
      3.88000000	     -8.97141235	      5.36248639	      3.86298113	     -1.34066261	     -0.00268159	     -0.34299161	     29.11346901	    -11.81654095	    -10.30878120	    -64.43625406	    -14.25817933	      5.33913395	     39.74721931	      8.85296123	     10.59610705	     19.24056038	     -9.45862681	      0.78557949	     -7.77526296	      1.37849811	      6.93607230	     -7.88772786	     -1.78228055
      3.88500000	     -8.76022302	      5.20400640	      4.01953406	     -1.33602912	     -0.00218132	     -0.34321507	     29.45285786	    -11.67149370	    -10.44168516	    -63.85548419	    -13.65827388	      5.29285942	     39.74143306	      8.10726780	     10.34132100	     19.29910216	     -9.03998542	      0.89015045	     -7.49233845	      1.72813885	      6.61699561	     -7.72564614	     -2.18572103
      3.89000000	     -8.65612611	      5.02029333	      4.14706035	     -1.33138192	     -0.00181594	     -0.34337330	     29.90487432	    -11.46923413	    -10.51388095	    -63.21288897	    -13.13624947	      5.25435369	     39.68648712	      7.47400423	     10.05323976	     19.38851351	     -8.60641330	      0.97876314	     -7.27116354	      2.02828614	      6.43577477	     -7.53271043	     -2.50083373
      3.89500000	     -8.50251292	      4.85972631	      4.28466340	     -1.32675836	     -0.00148188	     -0.34352435	     30.27714066	    -11.29243049	    -10.59647847	    -62.51550484	    -12.58904894	      5.19114850	     39.54732511	      6.79737858	      9.78871194	     19.45546699	     -8.18822248	      1.07002218	     -7.05882464	      2.39899671	      6.19046519	     -7.36532177	     -2.83140191
      3.90000000	     -8.29981851	      4.73033118	      4.41631264	     -1.32217176	     -0.00118207	     -0.34363872	     30.57960497	    -11.14049244	    -10.67679805	    -61.77407005	    -12.00555955	      5.09744223	     39.23089787	      6.08126361	      9.55501986	     19.48208544	     -7.78636938	      1.11919475	     -6.89635679	      2.91038508	      5.88179035	     -7.22876210	     -3.15577630
      3.90500000	     -8.30143960	      4.61569808	      4.50349518	     -1.31760500	     -0.00114936	     -0.34368710	     31.11839856	    -10.96746535	    -10.63343738	    -60.97865347	    -11.54102369	      4.98199544	     39.15459507	      5.60219780	      9.35423906	     19.56989309	     -7.43158690	      1.21717159	     -6.82406763	      3.04692446	      5.81273762	     -7.10975310	     -3.35240593
      3.91000000	     -8.02746525	      4.49572289	      4.63465136	     -1.31291599	     -0.00082456	     -0.34372494	     31.27684999	    -10.81186617	    -10.72333377	    -60.11839612	    -10.92199272	      4.97109456	     38.36313220	      4.78921527	      9.11472047	     19.62528256	     -6.99179805	      1.14269336	     -6.78309644	      3.65073106	      5.44734266	     -6.98326526	     -3.64538610
      3.91500000	     -7.94051179	      4.37805973	      4.81220317	     -1.30839275	     -0.00077396	     -0.34379550	     31.63708786	    -10.67092329	    -10.76049524	    -59.19790974	    -10.48785296	      4.89711483	     38.01129544	      4.23859622	      8.91579899	     19.82155550	     -6.68837577	      1.23589082	     -6.74987039	      3.85047242	      5.25677442	     -6.87952091	     -4.03154395
      3.92000000	     -7.79677940	      4.27383139	      4.94175777	     -1.30379845	     -0.00069564	     -0.34376885	     31.90687657	    -10.50773769	    -10.76155621	    -58.21065540	    -10.02553245	      4.83082433	     37.46535834	      3.61529312	      8.72048357	     19.99666040	     -6.37140235	      1.29329036	     -6.82366594	      3.93961371	      5.02068848	     -6.78046317	     -4.31284953
      3.92500000	     -7.68952224	      4.17689897	      5.10007292	     -1.29921303	     -0.00070374	     -0.34375818	     32.18706811	    -10.36931991	    -10.77628231	    -57.17429460	     -9.58014260	      4.78850377	     36.82873978	      3.04583204	      8.54447110	     20.23873729	     -6.09458124	      1.38135425	     -6.94326423	      3.90602679	      4.82058826	     -6.69658101	     -4.62212868
      3.93000000	     -7.58836645	      4.09122645	      5.25579725	     -1.29463083	     -0.00075614	     -0.34370541	     32.44922977	    -10.23539930	    -10.77226431	    -56.08415917	     -9.15475289	      4.76261659	     36.10080096	      2.49280684	      8.38374891	     20.51446366	     -5.84919134	      1.48818512	     -7.11548084	      3.72519930	      4.62788328	     -6.62737242	     -4.92476131
      3.93500000	     -7.50800348	      4.00705324	      5.42386963	     -1.29005367	     -0.00086201	     -0.34364692	     32.70341153	    -10.10903439	    -10.76806340	    -54.93853824	     -8.75719380	      4.76119547	     35.29961908	      1.97498849	      8.23145534	     20.83249762	     -5.63760712	      1.62844594	     -7.32279185	      3.40253027	      4.45207971	     -6.56492553	     -5.23708834
      3.94000000	     -7.44533042	      3.92785695	      5.59339706	     -1.28548554	     -0.00101744	     -0.34357318	     32.94885057	     -9.98806842	    -10.75119474	    -53.73685414	     -8.39349755	      4.77780174	     34.45237384	      1.48787838	      8.08890135	     21.17331976	     -5.45561398	      1.80140375	     -7.55115449	      2.96217606	      4.29581951	     -6.50525670	     -5.54922102
      3.94500000	     -7.40272657	      3.84300107	      5.77367197	     -1.28090805	     -0.00121570	     -0.34349329	     33.18129081	     -9.86760908	    -10.73885838	    -52.47385419	     -8.06972535	      4.79811078	     33.58900229	      1.03515942	      7.94474934	     21.53736381	     -5.30504388	      2.00224390	     -7.77961107	      2.45909927	      4.16118140	     -6.44601576	     -5.85635973
      3.95000000	     -7.38734510	      3.78901261	      5.90584317	     -1.27628805	     -0.00149137	     -0.34337483	     33.43309227	     -9.76284115	    -10.66836836	    -51.20189993	     -7.59915367	      5.02473376	     32.42693909	      0.60121662	      7.83810214	     21.89877628	     -5.15858058	      2.25906859	     -8.06350565	      1.60275951	      4.06706358	     -6.41079479	     -6.08012782
      3.95500000	     -7.47702496	      3.67896909	      6.07244601	     -1.27176156	     -0.00186443	     -0.34322761	     33.75652309	     -9.60902455	    -10.58571581	    -49.78621005	     -7.55621739	      4.99613192	     32.13098677	      0.34793544	      7.68113225	     22.08843735	     -5.07754287	      2.45545339	     -8.12586594	      1.53426656	      4.07499683	     -6.33635438	     -6.34623733
      3.96000000	     -7.36511932	      3.60180640	      6.25364530	     -1.26716831	     -0.00204437	     -0.34311058	     33.81563301	     -9.50795738	    -10.61463416	    -48.39583448	     -7.11202260	      5.16999541	     30.68360353	     -0.18834867	      7.53037778	     22.58413993	     -4.93367244	      2.69153937	     -8.48421590	      0.61302865	      3.85882921	     -6.27759556	     -6.65948863
      3.96500000	     -7.50192713	      3.48937674	      6.42286071	     -1.26267137	     -0.00249901	     -0.34295227	     34.13313574	     -9.36813345	    -10.53751178	    -46.88543469	     -7.11146086	      5.17980850	     30.35978405	     -0.37300965	      7.37560296	     22.75863785	     -4.87851712	      2.89963549	     -8.52009570	      0.55184077	      3.91025256	     -6.20361653	     -6.91430557
      3.97000000	     -7.43988048	      3.39629700	      6.60023038	     -1.25810266	     -0.00274709	     -0.34280527	     34.19101396	     -9.25789686	    -10.56528997	    -45.40517821	     -6.68564906	      5.40748746	     28.84999982	     -0.82464855	      7.20777836	     23.15127648	     -4.77496126	      3.18544991	     -8.70923560	     -0.23705757	      3.74600021	     -6.13094160	     -7.22181558
      3.97500000	     -7.53680081	      3.29029845	      6.77533668	     -1.25360227	     -0.00317986	     -0.34263888	     34.40593051	     -9.14228160	    -10.54058941	    -43.85470757	     -6.47360184	      5.56567267	     27.91866397	     -1.05479342	      7.04896552	     23.37924060	     -4.73250490	      3.48793647	     -8.70019563	     -0.63367135	      3.74896052	     -6.06013977	     -7.49663363
      3.98000000	     -7.69177061	      3.18246038	      6.90236181	     -1.24911617	     -0.00369441	     -0.34244808	     34.66259999	     -9.00359706	    -10.43265243	    -42.21884202	     -6.46019198	      5.69283007	     27.67564947	     -1.21189907	      6.89518600	     23.49922448	     -4.68008604	      3.66094491	     -8.72850618	     -0.61946517	      3.81980980	     -5.97806257	     -7.69728789
      3.98500000	     -7.71467404	      3.03426633	      7.11823554	     -1.24463333	     -0.00402337	     -0.34228810	     34.70580808	     -8.86738573	    -10.49131799	    -40.53787228	     -6.33209996	      5.76361919	     26.95740676	     -1.51148476	      6.66686513	     23.70126844	     -4.61545516	      3.86726287	     -8.67223034	     -0.64759332	      3.73146005	     -5.86136128	     -8.04292702
